<?xml version="1.0" encoding="UTF-8" standalone="no"?>
<!-- Created with Inkscape (http://www.inkscape.org/) -->

<svg
   width="56.740299mm"
   height="56.740322mm"
   viewBox="0 0 56.740299 56.740322"
   version="1.1"
   id="svg1"
   inkscape:version="1.3 (0e150ed6c4, 2023-07-21)"
   sodipodi:docname="thyme_logo.svg"
   xmlns:inkscape="http://www.inkscape.org/namespaces/inkscape"
   xmlns:sodipodi="http://sodipodi.sourceforge.net/DTD/sodipodi-0.dtd"
   xmlns="http://www.w3.org/2000/svg"
   xmlns:svg="http://www.w3.org/2000/svg">
  <sodipodi:namedview
     id="namedview1"
     pagecolor="#ffffff"
     bordercolor="#666666"
     borderopacity="1.0"
     inkscape:showpageshadow="2"
     inkscape:pageopacity="0.0"
     inkscape:pagecheckerboard="0"
     inkscape:deskcolor="#d1d1d1"
     inkscape:document-units="mm"
     inkscape:zoom="3.3727694"
     inkscape:cx="474.6841"
     inkscape:cy="601.73104"
     inkscape:window-width="3840"
     inkscape:window-height="2089"
     inkscape:window-x="-8"
     inkscape:window-y="-8"
     inkscape:window-maximized="1"
     inkscape:current-layer="layer1" />
  <defs
     id="defs1" />
  <g
     inkscape:label="Layer 1"
     inkscape:groupmode="layer"
     id="layer1"
     transform="translate(-46.781987,-207.44125)">
    <path
       id="path4"
       style="opacity:1;fill:#038544;fill-opacity:1;fill-rule:evenodd;stroke:none;stroke-width:0.865001;stroke-linecap:round;stroke-linejoin:round;paint-order:fill markers stroke"
       d="m 55.102512,215.73958 a 18.55528,12.723273 45 0 0 6.86573,15.51805 18.55528,12.723273 45 0 0 15.498114,6.86793 18.55528,12.723273 45 0 0 -6.867777,-15.49827 18.55528,12.723273 45 0 0 -15.496067,-6.88771 z"
       inkscape:transform-center-x="8.8683189"
       inkscape:transform-center-y="-8.8782388" />
    <path
       id="path5"
       style="opacity:1;fill:#03914a;fill-opacity:1;fill-rule:evenodd;stroke:none;stroke-width:0.865001;stroke-linecap:round;stroke-linejoin:round;paint-order:fill markers stroke"
       d="m 46.781986,235.79571 a 18.55528,12.723273 0 0 0 15.827719,6.11811 18.55528,12.723273 0 0 0 15.815182,-6.10246 18.55528,12.723273 0 0 0 -15.815183,-6.10268 18.55528,12.723273 0 0 0 -15.827718,6.08703 z"
       inkscape:transform-center-x="12.548701"
       inkscape:transform-center-y="-0.000159" />
    <path
       id="path7"
       style="opacity:1;fill:#049e51;fill-opacity:1;fill-rule:evenodd;stroke:none;stroke-width:0.865001;stroke-linecap:round;stroke-linejoin:round;paint-order:fill markers stroke"
       d="m 55.080309,255.86103 a 12.723273,18.55528 45 0 0 15.518045,-6.86573 12.723273,18.55528 45 0 0 6.867932,-15.49811 12.723273,18.55528 45 0 0 -15.498272,6.86778 12.723273,18.55528 45 0 0 -6.887705,15.49606 z"
       inkscape:transform-center-x="8.8782404"
       inkscape:transform-center-y="8.8683163" />
    <path
       id="path8"
       style="opacity:1;fill:#04ab57;fill-opacity:1;fill-rule:evenodd;stroke:none;stroke-width:0.865001;stroke-linecap:round;stroke-linejoin:round;paint-order:fill markers stroke"
       d="m 75.136436,264.18156 a 12.723273,18.55528 0 0 0 6.118111,-15.82772 12.723273,18.55528 0 0 0 -6.102459,-15.81518 12.723273,18.55528 0 0 0 -6.102684,15.81518 12.723273,18.55528 0 0 0 6.087032,15.82772 z"
       inkscape:transform-center-x="0.00016253724"
       inkscape:transform-center-y="12.548701" />
    <path
       id="path9"
       style="opacity:1;fill:#04b85e;fill-opacity:1;fill-rule:evenodd;stroke:none;stroke-width:0.865001;stroke-linecap:round;stroke-linejoin:round;paint-order:fill markers stroke"
       d="m 95.201763,255.88324 a 18.55528,12.723273 45 0 0 -6.865734,-15.51805 18.55528,12.723273 45 0 0 -15.498111,-6.86793 18.55528,12.723273 45 0 0 6.867772,15.49827 18.55528,12.723273 45 0 0 15.496073,6.88771 z"
       inkscape:transform-center-x="-8.8683176"
       inkscape:transform-center-y="8.878241" />
    <path
       id="path10"
       style="opacity:1;fill:#04c464;fill-opacity:1;fill-rule:evenodd;stroke:none;stroke-width:0.865001;stroke-linecap:round;stroke-linejoin:round;paint-order:fill markers stroke"
       d="m 103.52229,235.82711 a 18.55528,12.723273 0 0 0 -15.827724,-6.11811 18.55528,12.723273 0 0 0 -15.815178,6.10246 18.55528,12.723273 0 0 0 15.815176,6.10268 18.55528,12.723273 0 0 0 15.827726,-6.08703 z"
       inkscape:transform-center-x="-12.548701"
       inkscape:transform-center-y="0.0001610355" />
    <path
       id="path11"
       style="opacity:1;fill:#05d16b;fill-opacity:1;fill-rule:evenodd;stroke:none;stroke-width:0.865001;stroke-linecap:round;stroke-linejoin:round;paint-order:fill markers stroke"
       d="m 95.223968,215.76178 a 12.723273,18.55528 45 0 0 -15.518047,6.86574 12.723273,18.55528 45 0 0 -6.867929,15.49811 12.723273,18.55528 45 0 0 15.498266,-6.86777 12.723273,18.55528 45 0 0 6.88771,-15.49608 z"
       inkscape:transform-center-x="-8.8782424"
       inkscape:transform-center-y="-8.8683189" />
    <path
       id="path12"
       style="opacity:1;fill:#05df72;fill-opacity:1;fill-rule:evenodd;stroke:none;stroke-width:0.865001;stroke-linecap:round;stroke-linejoin:round;paint-order:fill markers stroke"
       d="m 75.167834,207.44125 a 12.723273,18.55528 0 0 0 -6.118103,15.82773 12.723273,18.55528 0 0 0 6.102461,15.81518 12.723273,18.55528 0 0 0 6.102679,-15.81518 12.723273,18.55528 0 0 0 -6.087037,-15.82773 z"
       inkscape:transform-center-x="-0.00016324365"
       inkscape:transform-center-y="-12.548704" />
  </g>
</svg>
